HIERARCHY
ROOT RootJoint
{
    OFFSET   0.000000   0.000000   0.000000
    CHANNELS 6 Xposition Yposition Zposition Xrotation Yrotation Zrotation
    JOINT pelvis_lowerback
    {
        OFFSET   0.000000   0.093605   0.000000
        CHANNELS 3 Xrotation Yrotation Zrotation
        JOINT lowerback_torso
        {
            OFFSET   0.000000   0.100000   0.000000
            CHANNELS 3 Xrotation Yrotation Zrotation
            JOINT torso_head
            {
                OFFSET   0.000000   0.282350   0.000000
                CHANNELS 3 Xrotation Yrotation Zrotation
                End Site
                {
                    OFFSET   0.000000   0.192650   0.000000
                }
            }
            JOINT rTorso_Clavicle
            {
                OFFSET  -0.001000   0.157500   0.000000
                CHANNELS 3 Xrotation Yrotation Zrotation
                JOINT rShoulder
                {
                    OFFSET  -0.117647   0.000000   0.000000
                    CHANNELS 3 Xrotation Yrotation Zrotation
                    JOINT rElbow
                    {
                        OFFSET  -0.245000   0.000000   0.000000
                        CHANNELS 3 Xrotation Yrotation Zrotation
                        JOINT rWrist
                        {
                            OFFSET  -0.240000   0.000000   0.000000
                            CHANNELS 3 Xrotation Yrotation Zrotation
                            End Site
                            {
                                OFFSET  -0.116353  -0.002500   0.000000
                            }
                        }
                    }
                }
            }
            JOINT lTorso_Clavicle
            {
                OFFSET   0.001000   0.157500   0.000000
                CHANNELS 3 Xrotation Yrotation Zrotation
                JOINT lShoulder
                {
                    OFFSET   0.117647   0.000000   0.000000
                    CHANNELS 3 Xrotation Yrotation Zrotation
                    JOINT lElbow
                    {
                        OFFSET   0.245000   0.000000   0.000000
                        CHANNELS 3 Xrotation Yrotation Zrotation
                        JOINT lWrist
                        {
                            OFFSET   0.240000   0.000000   0.000000
                            CHANNELS 3 Xrotation Yrotation Zrotation
                            End Site
                            {
                                OFFSET   0.116353  -0.002500   0.000000
                            }
                        }
                    }
                }
            }
        }
    }
    JOINT rHip
    {
        OFFSET  -0.100000  -0.051395   0.000000
        CHANNELS 3 Xrotation Yrotation Zrotation
        JOINT rKnee
        {
            OFFSET   0.000000  -0.410000   0.000000
            CHANNELS 3 Xrotation Yrotation Zrotation
            JOINT rAnkle
            {
                OFFSET   0.000000  -0.390000   0.000000
                CHANNELS 3 Xrotation Yrotation Zrotation
                JOINT rToeJoint
                {
                    OFFSET   0.000000  -0.050000   0.130000
                    CHANNELS 3 Xrotation Yrotation Zrotation
                    End Site
                    {
                        OFFSET  -0.010000   0.002000   0.060000
                    }
                }
            }
        }
    }
    JOINT lHip
    {
        OFFSET   0.100000  -0.051395   0.000000
        CHANNELS 3 Xrotation Yrotation Zrotation
        JOINT lKnee
        {
            OFFSET   0.000000  -0.410000   0.000000
            CHANNELS 3 Xrotation Yrotation Zrotation
            JOINT lAnkle
            {
                OFFSET   0.000000  -0.390000   0.000000
                CHANNELS 3 Xrotation Yrotation Zrotation
                JOINT lToeJoint
                {
                    OFFSET   0.000000  -0.050000   0.130000
                    CHANNELS 3 Xrotation Yrotation Zrotation
                    End Site
                    {
                        OFFSET   0.010000   0.002000   0.060000
                    }
                }
            }
        }
    }
}
MOTION
Frames: 15
Frame Time:   0.008333
 -2.713569   0.910174   3.703557  -5.381486 -24.049906  -2.393013  10.009358  -1.343792   0.355094  -5.587542  -1.221372  -1.608783   7.777199  -2.355943  -1.820124 -17.785041 -29.465203 -36.778953 -26.128837 -23.265457  10.371696  -0.013905   2.069245   0.009237  -7.728328  -2.882833  -4.608641 -16.274703  29.081534  33.216086 -26.392466  16.746344  -8.582719  -0.026761  -2.475620  -0.021121  -6.402180   2.112467   9.789085   3.616101  -3.045799  -2.243080  15.057806   0.000079   0.000018 -13.161360  -9.985307   0.465054  -0.380870   0.000017   0.000054   3.141883  -2.139001   6.447273  13.358048   0.000081   0.000239 -11.777364   5.630708   1.130630   0.457295  -0.000091   0.000082
 -2.712935   0.909967   3.703349  -5.578917 -24.015089  -2.473227  10.145242  -1.372915   0.397745  -5.631765  -1.279501  -1.642393   8.003361  -2.356369  -1.873386 -17.865453 -28.566600 -37.704524 -26.280926 -22.472514   9.405211  -0.018929   2.828172   0.011547  -7.536115  -3.169513  -5.007299 -16.417662  28.090188  33.931672 -26.563552  15.805628  -7.714023  -0.030829  -3.732764  -0.024265  -6.190745   2.356740  10.122196   3.666046  -3.056354  -2.272579  15.292546   0.000117   0.000024 -13.279119  -9.996977   0.377264  -0.356080   0.000037   0.000043   3.110013  -2.116571   6.420907  13.730207   0.000184   0.000406 -11.921035   5.560207   1.092261   0.412364  -0.000095   0.000065
 -2.712147   0.909746   3.703012  -5.816043 -23.987002  -2.567912  10.286626  -1.400837   0.439215  -5.627748  -1.337171  -1.672956   8.201369  -2.355119  -1.922717 -17.860455 -27.608355 -38.576507 -26.430883 -21.613632   8.513389  -0.022426   3.589863   0.013142  -7.334662  -3.212186  -5.374688 -16.476819  27.039282  34.599571 -26.726383  14.806809  -6.924502  -0.033060  -4.964504  -0.026320  -5.945350   2.315985  10.392503   3.726829  -3.062297  -2.311863  15.553810   0.000164   0.000014 -13.398271 -10.003444   0.293218  -0.330426   0.000055   0.000034   3.092585  -2.095797   6.386666  14.127752   0.000288   0.000523 -12.064066   5.490331   1.051923   0.371484  -0.000099   0.000054
 -2.711198   0.909538   3.702507  -6.063857 -23.967481  -2.669344  10.442559  -1.429855   0.482189  -5.581418  -1.394988  -1.699400   8.373028  -2.353527  -1.968194 -17.796742 -26.638231 -39.390348 -26.568932 -20.741188   7.696911  -0.024615   4.328979   0.013912  -7.130236  -3.090812  -5.679964 -16.475987  25.979224  35.220211 -26.873496  13.803811  -6.206547  -0.033914  -6.142382  -0.027119  -5.682989   2.108485  10.596634   3.781554  -3.062571  -2.355162  15.812371   0.000210  -0.000007 -13.498939 -10.005035   0.212999  -0.304289   0.000070   0.000027   3.076615  -2.078099   6.349398  14.515729   0.000376   0.000568 -12.191342   5.423059   1.013669   0.334270  -0.000101   0.000048
 -2.710095   0.909351   3.701834  -6.307622 -23.955602  -2.773951  10.618426  -1.460305   0.528095  -5.498936  -1.452976  -1.720629   8.525700  -2.351977  -2.010219 -17.694796 -25.688248 -40.148243 -26.691372 -19.884313   6.947323  -0.025791   5.035549   0.013949  -6.926324  -2.876962  -5.938383 -16.434535  24.941961  35.797246 -27.003045  12.824263  -5.549613  -0.033823  -7.258537  -0.026825  -5.414678   1.811845  10.758117   3.820669  -3.058020  -2.399200  16.059169   0.000249  -0.000035 -13.575690 -10.002355   0.136868  -0.277917   0.000082   0.000022   3.054557  -2.063525   6.311965  14.880995   0.000444   0.000555 -12.301402   5.359314   0.978555   0.300340  -0.000102   0.000045
 -2.708849   0.909184   3.701013  -6.540037 -23.949651  -2.879712  10.815380  -1.492204   0.577326  -5.385595  -1.511211  -1.736245   8.664694  -2.350600  -2.049111 -17.569206 -24.777459 -40.855465 -26.797540 -19.059504   6.255456  -0.026199   5.704737   0.013413  -6.725286  -2.615819  -6.168489 -16.366298  23.946075  36.336188 -27.115414  11.883222  -4.943983  -0.033087  -8.310459  -0.025689  -5.146713   1.470214  10.897628   3.840659  -3.049733  -2.442473  16.291193   0.000282  -0.000064 -13.628448  -9.996372   0.064959  -0.251446   0.000091   0.000017   3.023505  -2.051809   6.275595  15.218392   0.000494   0.000506 -12.396535   5.299480   0.946633   0.269346  -0.000101   0.000044
 -2.707478   0.909033   3.700075  -6.757480 -23.948070  -2.985161  11.031817  -1.525404   0.629604  -5.246601  -1.569651  -1.746391   8.793461  -2.349442  -2.085148 -17.430161 -23.916005 -41.517644 -26.888261 -18.275387   5.613328  -0.026025   6.334781   0.012477  -6.528616  -2.334464  -6.384282 -16.281016  23.001399  36.842392 -27.211968  10.988280  -4.381688  -0.031909  -9.298476  -0.023972  -4.882657   1.109020  11.029547   3.841253  -3.038642  -2.484582  16.507530   0.000309  -0.000091 -13.659223  -9.988006  -0.002801  -0.224912   0.000099   0.000014   2.982900  -2.042581   6.240487  15.526506   0.000529   0.000439 -12.479794   5.243615   0.917587   0.240983  -0.000099   0.000043
 -2.705991   0.908655   3.699044  -6.987512 -23.959166  -3.147145  11.216812  -1.523846   0.699358  -5.122218  -1.616207  -1.709833   9.006152  -2.342942  -2.092856 -17.241356 -22.997326 -41.946509 -26.891009 -17.396719   4.886739  -0.029049   7.562581   0.012311  -6.310061  -2.464217  -6.859991 -16.152959  21.985785  37.145259 -27.270584  10.047690  -3.807460  -0.032492 -10.955348  -0.025021  -4.655254   1.178652  11.390652   3.771120  -3.052952  -2.489352  16.871066   0.000370  -0.000288 -13.752548  -9.932846  -0.056073  -0.200174   0.000102   0.000011   2.830961  -2.042641   6.256842  16.101120   0.000630   0.000361 -12.730725   5.134202   0.880301   0.256692  -0.000068   0.000021
 -2.704436   0.908265   3.698006  -7.265250 -23.969798  -3.314660  11.410573  -1.523977   0.748724  -4.970423  -1.663272  -1.674382   9.197635  -2.335202  -2.096155 -17.002696 -22.049599 -42.309400 -26.890337 -16.494401   4.250459  -0.029775   8.755775   0.012046  -6.070885  -2.334811  -7.273977 -15.969823  20.939546  37.387992 -27.321686   9.082073  -3.318067  -0.030861 -12.552206  -0.025459  -4.387730   0.972354  11.680004   3.736646  -3.064950  -2.513984  17.249089   0.000439  -0.000460 -13.852677  -9.877429  -0.104971  -0.175189   0.000105   0.000008   2.679106  -2.014926   6.252353  16.737074   0.000809   0.000450 -12.953129   5.061863   0.832555   0.269340  -0.000045   0.000014
 -2.702822   0.907870   3.696957  -7.551804 -23.976823  -3.486458  11.605615  -1.528120   0.797545  -4.800305  -1.711501  -1.640645   9.365869  -2.327540  -2.099223 -16.736507 -21.106799 -42.626109 -26.883745 -15.606418   3.689403  -0.029068   9.888844   0.011526  -5.828494  -2.086831  -7.599705 -15.754232  19.900437  37.590280 -27.363148   8.132504  -2.896542  -0.028133 -14.062820  -0.025167  -4.107279   0.644268  11.881660   3.713291  -3.075455  -2.540712  17.617035   0.000501  -0.000585 -13.945157  -9.825347  -0.151277  -0.150069   0.000107   0.000007   2.537315  -1.975656   6.243929  17.361084   0.000998   0.000577 -13.163314   5.006449   0.785883   0.282421  -0.000024   0.000011
 -2.701157   0.907485   3.695895  -7.830762 -23.984780  -3.655082  11.804773  -1.534180   0.844098  -4.619347  -1.759183  -1.608363   9.516138  -2.320167  -2.102130 -16.460374 -20.192889 -42.905926 -26.870831 -14.752466   3.188865  -0.027563  10.956954   0.010746  -5.589001  -1.787279  -7.859968 -15.524257  18.893699  37.762997 -27.395498   7.218736  -2.526741  -0.024994 -15.483951  -0.024215  -3.826002   0.264335  12.024113   3.688468  -3.082596  -2.569939  17.966912   0.000550  -0.000670 -14.024792  -9.774995  -0.195253  -0.124891   0.000109   0.000005   2.400914  -1.938064   6.232644  17.954679   0.001146   0.000636 -13.355324   4.955890   0.742281   0.294633  -0.000009   0.000008
 -2.699457   0.907115   3.694838  -8.095277 -23.993896  -3.817110  12.009027  -1.541772   0.888076  -4.431282  -1.805819  -1.577737   9.652919  -2.313208  -2.105022 -16.185394 -19.321382 -43.156999 -26.852232 -13.942489   2.736961  -0.025663  11.959457   0.009768  -5.355359  -1.469796  -8.077191 -15.291309  17.933214  37.914361 -27.419847   6.350691  -2.196832  -0.021828 -16.816645  -0.022755  -3.549480  -0.133768  12.131549   3.658706  -3.086757  -2.601734  18.295103   0.000587  -0.000724 -14.090806  -9.726406  -0.237088  -0.099702   0.000110   0.000004   2.266304  -1.902193   6.218230  18.514297   0.001255   0.000644 -13.528186   4.910275   0.700988   0.305829   0.000002   0.000007
 -2.697737   0.906761   3.693805  -8.342377 -24.004028  -3.970933  12.217506  -1.550456   0.929281  -4.239020  -1.851097  -1.548900   9.779266  -2.306708  -2.107948 -15.918152 -18.498847 -43.385732 -26.828957 -13.180551   2.324640  -0.023608  12.897913   0.008673  -5.129044  -1.151978  -8.267556 -15.062363  17.025716  38.050417 -27.437445   5.532518  -1.898219  -0.018837 -18.064005  -0.020961  -3.280442  -0.532588  12.220311   3.623514  -3.088359  -2.635976  18.600600   0.000612  -0.000749 -14.144434  -9.679739  -0.276972  -0.074543   0.000112   0.000003   2.132242  -1.867950   6.200666  19.040086   0.001329   0.000616 -13.683579   4.869239   0.661877   0.316100   0.000011   0.000005
 -2.695816   0.906275   3.692559  -8.467312 -24.085756  -4.101428  12.327392  -1.529106   0.964158  -4.109638  -1.901025  -1.482956   9.921362  -2.250193  -2.105933 -15.581373 -17.743307 -43.289717 -26.654676 -12.406179   1.953526  -0.020045  14.848764   0.003721  -4.969098  -1.303698  -8.788770 -14.773304  16.164663  37.944072 -27.307507   4.824771  -1.621314  -0.012346 -20.298009  -0.018373  -3.134931  -0.455370  12.584764   3.372020  -3.094967  -2.671556  19.032850   0.000662  -0.001133 -14.220120  -9.557251  -0.276760  -0.055781   0.000102   0.000002   1.801801  -1.881591   6.184851  19.730133   0.001398  -0.000006 -13.959737   4.757371   0.616349   0.437773   0.000136  -0.000184
 -2.693789   0.905756   3.691265  -8.619934 -24.219995  -4.259216  12.457056  -1.494031   1.004599  -3.966291  -1.934152  -1.409614  10.042111  -2.195586  -2.103311 -15.210913 -16.953396 -43.112270 -26.485138 -11.619294   1.685077  -0.013847  16.721857  -0.000726  -4.765421  -1.120359  -9.184454 -14.452397  15.288280  37.767010 -27.178240   4.107628  -1.432056  -0.004054 -22.431982  -0.016080  -2.931468  -0.685870  12.844971   3.124532  -3.086554  -2.706964  19.471898   0.000690  -0.001614 -14.284684  -9.426858  -0.272787  -0.036030   0.000096  -0.000005   1.493060  -1.918288   6.157554  20.427956   0.001430  -0.001010 -14.205718   4.627624   0.567237   0.544784   0.000236  -0.000405
